<svg width="1080" height="1080" viewBox="0 0 1080 1080" fill="none" xmlns="http://www.w3.org/2000/svg">
<path d="M277.101 355.334C287.386 365.491 301.264 371.18 315.72 371.162H315.767C330.376 371.156 344.383 365.347 354.708 355.013C365.034 344.679 370.831 330.666 370.825 316.058C370.818 301.449 365.009 287.442 354.675 277.116C344.341 266.791 330.328 260.994 315.72 261C308.514 261.028 301.385 262.475 294.739 265.258C288.092 268.041 282.059 272.106 276.984 277.22C271.908 282.335 267.89 288.399 265.158 295.067C262.427 301.734 261.035 308.875 261.063 316.08C260.926 323.37 262.278 330.611 265.036 337.36C267.793 344.109 271.899 350.225 277.101 355.334ZM153.855 168.991C153.878 166.979 154.3 164.991 155.097 163.143C155.895 161.295 157.051 159.624 158.499 158.227C161.726 155.431 165.835 153.861 170.104 153.794C240.111 151.618 309.867 163.16 375.442 187.769C439.955 217.65 498.185 259.549 547.015 311.225C572.971 337.183 600.829 368.206 631.429 404.503L812.7 414C815.205 414.362 817.606 415.243 819.75 416.587C821.894 417.932 823.733 419.71 825.149 421.808L932.357 605.408C934.174 608.295 934.935 611.722 934.512 615.107C934.089 618.492 932.507 621.626 930.035 623.977L899.224 654.368C897.766 655.765 896.045 656.857 894.161 657.582C892.277 658.307 890.268 658.649 888.25 658.589H883.818L752.773 618.075L618.556 752.506L659.074 884.612C659.883 887.236 659.976 890.029 659.343 892.701C658.71 895.372 657.374 897.827 655.474 899.809L624.665 930.409C621.716 933.116 617.901 934.686 613.901 934.839C611.151 934.889 608.444 934.157 606.094 932.729L422.494 825.734C420.367 824.37 418.577 822.541 417.262 820.384C415.946 818.226 415.137 815.798 414.898 813.283L405.4 632.005C369.1 601.756 338.008 573.617 312.122 547.589C260.628 498.64 219.13 440.156 189.934 375.386C164.498 309.396 152.241 239.061 153.855 168.356V168.991Z" stroke="black" stroke-width="29" stroke-linecap="round" stroke-linejoin="round"/>
<path d="M244.863 156.683C342.266 81.6892 464.569 46.5945 586.916 58.531C709.264 70.4676 822.477 128.54 903.548 220.946C984.619 313.352 1027.47 433.159 1023.38 556.02C1019.29 678.881 968.583 795.577 881.552 882.393C794.52 969.209 677.7 1019.63 554.829 1023.41C431.959 1027.19 312.258 984.052 220.053 902.753C127.847 821.454 70.0551 708.097 58.4212 585.721C46.7873 463.344 82.1844 341.128 157.419 243.911" stroke="black" stroke-width="29" stroke-linecap="round" stroke-linejoin="round"/>
<path d="M602.039 59.9219C595.588 75.2154 592.224 91.6339 592.142 108.232C592.06 124.831 595.262 141.282 601.563 156.638C607.864 171.994 617.139 185.953 628.856 197.711C640.572 209.468 654.498 218.793 669.832 225.148C685.166 231.502 701.606 234.762 718.205 234.738C734.803 234.714 751.233 231.408 766.55 225.01C781.866 218.612 795.765 209.248 807.448 197.457C819.131 185.667 828.367 171.682 834.624 156.307" stroke="black" stroke-width="29" stroke-linecap="round" stroke-linejoin="round"/>
<path d="M323.163 972.542C343.263 941.302 352.21 904.185 348.552 867.218C344.894 830.251 328.845 795.607 303.013 768.912C277.181 742.218 243.082 725.041 206.255 720.172C169.428 715.302 132.037 723.027 100.154 742.09" stroke="black" stroke-width="29" stroke-linecap="round" stroke-linejoin="round"/>
</svg>
